<?xml version="1.0" encoding="UTF-8" standalone="no"?>
<!DOCTYPE svg PUBLIC "-//W3C//DTD SVG 1.0//EN" "http://www.w3.org/TR/2001/PR-SVG-20010719/DTD/svg10.dtd">
<svg width="153cm" height="98cm" viewBox="171 85 3060 1960" xmlns="http://www.w3.org/2000/svg" xmlns:xlink="http://www.w3.org/1999/xlink">
  <g>
    <g>
      <path style="fill: #99e099" d="M 2853.63 1720.92 C 2253.63,1894.12 1893.63,1686.28 1773.63,2032.69 C 1743.63,1980.73 1643.63,1807.52 1613.63,1755.56 C 1773.63,1755.56 2733.63,1720.92 2853.63,1720.92z"/>
      <path style="fill: none; fill-opacity:0; stroke-width: 1.99672; stroke: #99e099" d="M 2853.63 1720.92 C 2253.63,1894.12 1893.63,1686.28 1773.63,2032.69 C 1743.63,1980.73 1643.63,1807.52 1613.63,1755.56 C 1773.63,1755.56 2733.63,1720.92 2853.63,1720.92"/>
    </g>
    <g>
      <polygon style="fill: #99e099" points="2573.63,1755.56 1613.63,1755.56 2093.63,924.176 3053.63,924.176 3213.63,1062.74 2933.63,1270.59 3053.63,1478.43 2973.63,1617 "/>
      <polygon style="fill: none; fill-opacity:0; stroke-width: 1.99672; stroke: #99e099" points="2573.63,1755.56 1613.63,1755.56 2093.63,924.176 3053.63,924.176 3213.63,1062.74 2933.63,1270.59 3053.63,1478.43 2973.63,1617 "/>
    </g>
    <g>
      <path style="fill: #99e099" d="M 1613.63 92.7916 C 2123.63,629.728 3033.63,716.33 3213.63,993.458 C 3133.63,993.458 2253.63,924.176 2093.63,924.176 C 2013.63,785.612 1653.63,162.074 1613.63,92.7916z"/>
      <path style="fill: none; fill-opacity:0; stroke-width: 1.99672; stroke: #99e099" d="M 1613.63 92.7916 C 2123.63,629.728 3033.63,716.33 3213.63,993.458 C 3133.63,993.458 2253.63,924.176 2093.63,924.176 C 2013.63,785.612 1653.63,162.074 1613.63,92.7916"/>
    </g>
    <g>
      <path style="fill: #99e099" d="M 653.629 1755.56 C 863.629,1772.88 1233.63,1963.41 1293.63,2032.69 C 1213.63,1894.12 1173.63,1824.84 1133.63,1755.56 C 1053.63,1755.56 993.629,1755.56 653.629,1755.56z"/>
      <path style="fill: none; fill-opacity:0; stroke-width: 1.99672; stroke: #99e099" d="M 653.629 1755.56 C 863.629,1772.88 1233.63,1963.41 1293.63,2032.69 C 1213.63,1894.12 1173.63,1824.84 1133.63,1755.56 C 1053.63,1755.56 993.629,1755.56 653.629,1755.56"/>
    </g>
  </g>
  <g>
    <polygon style="fill: #016ca2" points="653.629,1755.56 773.629,1547.71 1493.63,1547.71 1613.63,1755.56 "/>
    <polygon style="fill: none; fill-opacity:0; stroke-width: 1.99672; stroke: #016ca2" points="653.629,1755.56 773.629,1547.71 1493.63,1547.71 1613.63,1755.56 "/>
  </g>
  <g>
    <polygon style="fill: #016ca2" points="1613.63,1755.56 1133.63,1755.56 1293.63,2032.69 1773.63,2032.69 "/>
    <polygon style="fill: none; fill-opacity:0; stroke-width: 1.99672; stroke: #016ca2" points="1613.63,1755.56 1133.63,1755.56 1293.63,2032.69 1773.63,2032.69 "/>
  </g>
  <g>
    <polygon style="fill: #000000" points="2033.63,1755.56 1793.63,1755.56 2273.63,924.176 2513.63,924.176 "/>
    <polygon style="fill: none; fill-opacity:0; stroke-width: 1.99672; stroke: #000000" points="2033.63,1755.56 1793.63,1755.56 2273.63,924.176 2513.63,924.176 "/>
  </g>
  <g>
    <polygon style="fill: #000000" points="2613.63,1755.56 2373.63,1755.56 2853.63,924.176 3093.63,924.176 "/>
    <polygon style="fill: none; fill-opacity:0; stroke-width: 1.99672; stroke: #000000" points="2613.63,1755.56 2373.63,1755.56 2853.63,924.176 3093.63,924.176 "/>
  </g>
  <g>
    <polygon style="fill: #000000" points="2453.63,1028.1 2513.63,924.176 2733.63,924.176 2673.63,1028.1 "/>
    <polygon style="fill: none; fill-opacity:0; stroke-width: 1.99672; stroke: #000000" points="2453.63,1028.1 2513.63,924.176 2733.63,924.176 2673.63,1028.1 "/>
  </g>
  <g>
    <polygon style="fill: #000000" points="2033.63,1755.56 2093.63,1651.64 2313.63,1651.64 2253.63,1755.56 "/>
    <polygon style="fill: none; fill-opacity:0; stroke-width: 1.99672; stroke: #000000" points="2033.63,1755.56 2093.63,1651.64 2313.63,1651.64 2253.63,1755.56 "/>
  </g>
  <g>
    <polygon style="fill: #000000" points="2283.63,1322.55 2343.63,1218.63 2463.63,1218.63 2403.63,1322.55 "/>
    <polygon style="fill: none; fill-opacity:0; stroke-width: 1.99672; stroke: #000000" points="2283.63,1322.55 2343.63,1218.63 2463.63,1218.63 2403.63,1322.55 "/>
  </g>
  <g>
    <path style="fill: #000000" d="M 3093.63 924.176 C 3223.63,941.498 3243.63,1045.42 3223.63,1114.7 C 3203.63,1183.98 3093.63,1339.87 2863.63,1322.55 C 2923.63,1218.63 2903.63,1253.27 2923.63,1218.63 C 3063.63,1218.63 3083.63,1149.34 3103.63,1114.7 C 3123.63,1080.06 3113.63,1028.1 3033.63,1028.1 C 3093.63,924.176 3073.63,958.818 3093.63,924.176z"/>
    <path style="fill: none; fill-opacity:0; stroke-width: 1.99672; stroke: #000000" d="M 3093.63 924.176 C 3223.63,941.498 3243.63,1045.42 3223.63,1114.7 C 3203.63,1183.98 3093.63,1339.87 2863.63,1322.55 C 2923.63,1218.63 2903.63,1253.27 2923.63,1218.63 C 3063.63,1218.63 3083.63,1149.34 3103.63,1114.7 C 3123.63,1080.06 3113.63,1028.1 3033.63,1028.1 C 3093.63,924.176 3073.63,958.818 3093.63,924.176"/>
  </g>
  <g>
    <path style="fill: #000000" d="M 2893.63 1235.95 C 3153.63,1270.59 3123.63,1495.75 3013.63,1617 C 2903.63,1738.24 2783.63,1738.24 2613.63,1755.56 C 2643.63,1703.6 2663.63,1668.96 2683.63,1634.32 C 2783.63,1634.32 2873.63,1617 2923.63,1565.04 C 2973.63,1513.07 3093.63,1339.87 2863.63,1322.55 C 2923.63,1218.63 2833.63,1339.87 2893.63,1235.95z"/>
    <path style="fill: none; fill-opacity:0; stroke-width: 1.99672; stroke: #000000" d="M 2893.63 1235.95 C 3153.63,1270.59 3123.63,1495.75 3013.63,1617 C 2903.63,1738.24 2783.63,1738.24 2613.63,1755.56 C 2643.63,1703.6 2663.63,1668.96 2683.63,1634.32 C 2783.63,1634.32 2873.63,1617 2923.63,1565.04 C 2973.63,1513.07 3093.63,1339.87 2863.63,1322.55 C 2923.63,1218.63 2833.63,1339.87 2893.63,1235.95"/>
  </g>
  <g>
    <polygon style="fill: #016ca2" points="653.629,1755.56 173.629,924.176 653.629,92.7916 1613.63,92.7916 2093.63,924.176 1613.63,1755.56 "/>
    <polygon style="fill: none; fill-opacity:0; stroke-width: 1.99672; stroke: #016ca2" points="653.629,1755.56 173.629,924.176 653.629,92.7916 1613.63,92.7916 2093.63,924.176 1613.63,1755.56 "/>
  </g>
  <g>
    <polygon style="fill: #99e099" points="893.629,508.484 1373.63,508.484 1613.63,924.176 1373.63,1339.87 893.629,1339.87 653.629,924.176 "/>
    <polygon style="fill: none; fill-opacity:0; stroke-width: 1.99672; stroke: #99e099" points="893.629,508.484 1373.63,508.484 1613.63,924.176 1373.63,1339.87 893.629,1339.87 653.629,924.176 "/>
  </g>
  <g>
    <polygon style="fill: #000000" points="1493.63,1547.71 1853.63,924.176 2093.63,924.176 1613.63,1755.56 1373.63,1755.56 1133.63,1339.87 893.629,1755.56 653.629,1755.56 173.629,924.176 413.629,924.176 773.629,1547.71 1013.63,1132.02 1133.63,924.176 1253.63,1132.02 "/>
    <polygon style="fill: none; fill-opacity:0; stroke-width: 1.99672; stroke: #000000" points="1493.63,1547.71 1853.63,924.176 2093.63,924.176 1613.63,1755.56 1373.63,1755.56 1133.63,1339.87 893.629,1755.56 653.629,1755.56 173.629,924.176 413.629,924.176 773.629,1547.71 1013.63,1132.02 1133.63,924.176 1253.63,1132.02 "/>
  </g>
</svg>
